<svg width="113" height="32" viewBox="0 0 113 32" fill="none" xmlns="http://www.w3.org/2000/svg">
<path d="M16.332 8.5C16.332 12.6421 12.9742 16 8.83203 16H1.33203V8.5C1.33203 4.35786 4.68989 1 8.83203 1C12.9742 1 16.332 4.35786 16.332 8.5Z" fill="#8267EC"/>
<path d="M16.332 23.5C16.332 19.3579 19.6899 16 23.832 16H31.332V23.5C31.332 27.6421 27.9742 31 23.832 31C19.6899 31 16.332 27.6421 16.332 23.5Z" fill="#8267EC"/>
<path d="M1.33203 23.5C1.33203 27.6421 4.68989 31 8.83203 31H16.332V23.5C16.332 19.3579 12.9742 16 8.83203 16C4.68989 16 1.33203 19.3579 1.33203 23.5Z" fill="#8267EC"/>
<path d="M31.332 8.5C31.332 4.35786 27.9742 1 23.832 1H16.332V8.5C16.332 12.6421 19.6899 16 23.832 16C27.9742 16 31.332 12.6421 31.332 8.5Z" fill="#8267EC"/>
<path d="M55.8243 8.4V23H53.4843L48.7243 14.98C47.8843 13.5 47.0643 11.98 46.2643 10.48C46.3643 12.38 46.4043 14.24 46.4043 15.9V23H44.5643V8.4H46.8843L51.5043 16.12C52.4043 17.68 53.2643 19.26 54.1043 20.84C54.0243 18.98 53.9843 17 53.9843 15.36V8.4H55.8243ZM59.8593 12.58V23H57.9793V12.58H59.8593ZM57.7793 9.5C57.7793 8.86 58.2793 8.36 58.8993 8.36C59.5393 8.36 60.0393 8.86 60.0393 9.5C60.0393 10.12 59.5393 10.62 58.8993 10.62C58.2793 10.62 57.7793 10.12 57.7793 9.5ZM65.9771 12.3C68.8771 12.3 70.1771 13.8 70.3371 15.98H68.4771C68.3771 14.7 67.4571 13.94 65.9371 13.94C64.1371 13.94 63.0171 15.06 63.0171 17.76C63.0171 20.4 63.9971 21.66 65.8971 21.66C67.2571 21.66 68.2971 20.82 68.4771 19.6H70.3371C70.0571 21.8 68.5171 23.28 65.7971 23.28C62.5571 23.28 61.0571 21.22 61.0571 17.8C61.0571 14.26 62.6371 12.3 65.9771 12.3ZM75.9784 12.3C79.1784 12.3 80.5584 14.5 80.5584 17.6C80.5584 17.82 80.5584 18.12 80.5384 18.42H73.0784C73.2384 20.78 74.2384 21.66 75.9784 21.66C77.3584 21.66 78.2584 21.06 78.5584 19.92H80.4184C80.0184 22.06 78.4184 23.28 75.9184 23.28C72.7584 23.28 71.1384 21.4 71.1384 17.82C71.1384 14.26 72.7584 12.3 75.9784 12.3ZM73.0984 16.92H78.6384C78.4984 14.74 77.4184 13.94 75.8984 13.94C74.2784 13.94 73.2584 14.7 73.0984 16.92ZM83.7359 26.8H81.8559V12.58H83.5959L83.6759 14.5C84.1559 12.84 85.5959 12.3 87.2959 12.3C90.4159 12.3 91.8159 14.48 91.8159 17.78C91.8159 21.28 90.1159 23.28 87.1559 23.28C85.6759 23.28 84.3159 22.84 83.7359 21.46V26.8ZM83.7359 18.12C83.7359 20.86 85.2559 21.66 86.6759 21.66C88.7359 21.66 89.7759 20.16 89.7759 17.76C89.7759 15.6 88.9159 13.94 86.7359 13.94C85.0359 13.94 83.7359 14.88 83.7359 17.64V18.12ZM97.2876 12.3C100.028 12.3 101.148 13.54 101.288 15.36C101.328 15.9 101.348 16.3 101.348 16.9V23H99.6276L99.5276 21.46C98.9476 22.86 97.5876 23.28 96.0676 23.28C94.0876 23.28 92.6476 22.2 92.6476 20.22C92.6476 17.54 94.9076 16.72 98.9276 16.72H99.4676V16.2C99.4676 14.88 99.1276 13.94 97.2076 13.94C95.6676 13.94 94.9076 14.46 94.7276 15.76H93.0076C93.1076 13.7 94.3076 12.3 97.2876 12.3ZM94.5476 20C94.5476 21.04 95.2676 21.66 96.6276 21.66C98.1076 21.66 99.4676 20.72 99.4676 19.3V18.24C96.5676 18.16 94.5476 18.36 94.5476 20ZM107.917 23C106.497 26.6 105.497 27.2 103.437 27.2C103.057 27.2 102.777 27.18 102.457 27.1V25.52C102.797 25.56 103.157 25.58 103.517 25.58C104.377 25.58 105.097 25.26 105.657 23.86L105.857 23.32L101.677 12.58H103.877L106.897 21.4L110.097 12.58H112.097L107.917 23Z" fill="#060B13"/>
</svg>
